HIERARCHY
ROOT Hips
{
	OFFSET 0.000000 83.214638 0.000000
	CHANNELS 6 Xposition Yposition Zposition Xrotation Yrotation Zrotation
	JOINT Pelvis
	{
		OFFSET 0.000000 0.000000 0.000000
		CHANNELS 3 Xrotation Yrotation Zrotation
		JOINT LeftUpLeg
		{
			OFFSET 8.479700 -4.795502 -0.379100
			CHANNELS 3 Xrotation Yrotation Zrotation
			JOINT LeftLeg
			{
				OFFSET 0.024144 -32.555107 0.112900
				CHANNELS 3 Xrotation Yrotation Zrotation
				JOINT LeftFoot
				{
					OFFSET -0.024144 -32.638630 -3.012600
					CHANNELS 3 Xrotation Yrotation Zrotation
					JOINT LeftToeBase
					{
						OFFSET 0.970200 -13.225400 11.864200
						CHANNELS 3 Xrotation Yrotation Zrotation
						End Site
						{
							OFFSET 0.000000 12.319262 0.000000
						}
					}
					JOINT LFootTongue
					{
						OFFSET 1.142400 -1.059800 6.665200
						CHANNELS 3 Xrotation Yrotation Zrotation
						End Site
						{
							OFFSET 0.000000 12.319262 0.000000
						}
					}
				}
				JOINT LeftPantLeg
				{
					OFFSET 0.918482 -16.533964 -2.284700
					CHANNELS 3 Xrotation Yrotation Zrotation
					End Site
					{
						OFFSET 0.350399 24.744368 0.000000
					}
				}
			}
		}
		JOINT RightUpLeg
		{
			OFFSET -8.479700 -4.795502 -0.379100
			CHANNELS 3 Xrotation Yrotation Zrotation
			JOINT RightLeg
			{
				OFFSET -0.023144 -32.555092 0.112900
				CHANNELS 3 Xrotation Yrotation Zrotation
				JOINT RightFoot
				{
					OFFSET 0.023144 -32.638641 -3.012700
					CHANNELS 3 Xrotation Yrotation Zrotation
					JOINT RightToeBase
					{
						OFFSET -0.970200 -13.225400 11.864200
						CHANNELS 3 Xrotation Yrotation Zrotation
						End Site
						{
							OFFSET 0.000000 12.319244 0.000000
						}
					}
					JOINT RFootTongue
					{
						OFFSET -1.142200 -1.059800 6.665200
						CHANNELS 3 Xrotation Yrotation Zrotation
						End Site
						{
							OFFSET 0.000000 12.319243 0.000000
						}
					}
				}
				JOINT RightPantLeg
				{
					OFFSET -0.919482 -16.533978 -2.284800
					CHANNELS 3 Xrotation Yrotation Zrotation
					End Site
					{
						OFFSET -0.350400 24.744419 0.000000
					}
				}
			}
		}
	}
	JOINT Spine
	{
		OFFSET 0.000000 7.722000 1.166200
		CHANNELS 3 Xrotation Yrotation Zrotation
		JOINT Spine1
		{
			OFFSET 0.000000 12.024101 0.248800
			CHANNELS 3 Xrotation Yrotation Zrotation
			JOINT Spine2
			{
				OFFSET 0.000000 11.502998 -0.491200
				CHANNELS 3 Xrotation Yrotation Zrotation
				JOINT Neck
				{
					OFFSET 0.000000 18.430702 -3.123100
					CHANNELS 3 Xrotation Yrotation Zrotation
					JOINT Head
					{
						OFFSET 0.000000 9.051102 1.034000
						CHANNELS 3 Xrotation Yrotation Zrotation
						JOINT HairB
						{
							OFFSET 0.208400 24.786102 24.822300
							CHANNELS 3 Xrotation Yrotation Zrotation
							End Site
							{
								OFFSET 0.000000 32.263779 0.000000
							}
						}
						JOINT HairA
						{
							OFFSET -7.081100 24.428299 23.196600
							CHANNELS 3 Xrotation Yrotation Zrotation
							End Site
							{
								OFFSET 0.000000 32.263779 0.000000
							}
						}
						JOINT Hat
						{
							OFFSET 16.728800 15.048294 -15.439601
							CHANNELS 3 Xrotation Yrotation Zrotation
							End Site
							{
								OFFSET 0.000000 32.263779 0.000000
							}
						}
					}
				}
				JOINT LeftShoulder
				{
					OFFSET 6.197800 13.665199 -4.064700
					CHANNELS 3 Xrotation Yrotation Zrotation
					JOINT LeftArm
					{
						OFFSET 7.778100 -0.187103 -1.709300
						CHANNELS 3 Xrotation Yrotation Zrotation
						JOINT LeftForeArm
						{
							OFFSET 22.049376 0.000000 0.000000
							CHANNELS 3 Xrotation Yrotation Zrotation
							JOINT LeftHand
							{
								OFFSET 23.009392 0.000000 0.000000
								CHANNELS 3 Xrotation Yrotation Zrotation
								JOINT LeftHandThumb1
								{
									OFFSET 3.507191 -2.063065 3.133727
									CHANNELS 3 Xrotation Yrotation Zrotation
									JOINT LeftHandThumb2
									{
										OFFSET 3.101337 -1.790558 1.790558
										CHANNELS 3 Xrotation Yrotation Zrotation
										JOINT LeftHandThumb3
										{
											OFFSET 3.058640 -1.765907 1.765906
											CHANNELS 3 Xrotation Yrotation Zrotation
											End Site
											{
												OFFSET -0.415260 3.926476 -0.049563
											}
										}
									}
								}
								JOINT LeftHandIndex1
								{
									OFFSET 11.334419 -0.901459 3.706815
									CHANNELS 3 Xrotation Yrotation Zrotation
									JOINT LeftHandIndex2
									{
										OFFSET 3.283112 0.000000 0.000000
										CHANNELS 3 Xrotation Yrotation Zrotation
										JOINT LeftHandIndex3
										{
											OFFSET 3.323853 0.000000 0.000000
											CHANNELS 3 Xrotation Yrotation Zrotation
											End Site
											{
												OFFSET -1.135597 3.097809 0.402452
											}
										}
									}
								}
								JOINT LeftHandMiddle1
								{
									OFFSET 11.335861 0.000000 0.000000
									CHANNELS 3 Xrotation Yrotation Zrotation
									JOINT LeftHandMiddle2
									{
										OFFSET 3.410492 0.000000 0.000000
										CHANNELS 3 Xrotation Yrotation Zrotation
										JOINT LeftHandMiddle3
										{
											OFFSET 3.312172 0.000000 0.000000
											CHANNELS 3 Xrotation Yrotation Zrotation
											End Site
											{
												OFFSET -1.150200 3.080154 0.400270
											}
										}
									}
								}
								JOINT LeftHandRing1
								{
									OFFSET 11.514786 -0.013176 -3.003090
									CHANNELS 3 Xrotation Yrotation Zrotation
									JOINT LeftHandRing2
									{
										OFFSET 3.053307 0.000000 0.000000
										CHANNELS 3 Xrotation Yrotation Zrotation
										JOINT LeftHandRing3
										{
											OFFSET 3.295807 0.000000 0.000000
											CHANNELS 3 Xrotation Yrotation Zrotation
											End Site
											{
												OFFSET -1.281006 3.013344 0.375733
											}
										}
									}
								}
								JOINT LeftHandPinky1
								{
									OFFSET 10.518692 -0.960396 -5.730441
									CHANNELS 3 Xrotation Yrotation Zrotation
									JOINT LeftHandPinky2
									{
										OFFSET 2.861649 0.000000 0.000000
										CHANNELS 3 Xrotation Yrotation Zrotation
										JOINT LeftHandPinky3
										{
											OFFSET 2.863380 0.000000 0.000000
											CHANNELS 3 Xrotation Yrotation Zrotation
											End Site
											{
												OFFSET -0.843597 2.711159 0.369971
											}
										}
									}
								}
							}
							JOINT LSleeve
							{
								OFFSET 6.676277 -0.344902 -1.011730
								CHANNELS 3 Xrotation Yrotation Zrotation
								End Site
								{
									OFFSET 0.000000 14.885353 0.000000
								}
							}
						}
					}
				}
				JOINT RightShoulder
				{
					OFFSET -6.197800 13.665199 -4.064700
					CHANNELS 3 Xrotation Yrotation Zrotation
					JOINT RightArm
					{
						OFFSET -7.778100 -0.187103 -1.709300
						CHANNELS 3 Xrotation Yrotation Zrotation
						JOINT RightForeArm
						{
							OFFSET -22.049376 0.000000 0.000000
							CHANNELS 3 Xrotation Yrotation Zrotation
							JOINT RightHand
							{
								OFFSET -23.009392 0.000000 0.000000
								CHANNELS 3 Xrotation Yrotation Zrotation
								JOINT RightHandThumb1
								{
									OFFSET -3.507191 -2.063065 3.133727
									CHANNELS 3 Xrotation Yrotation Zrotation
									JOINT RightHandThumb2
									{
										OFFSET -3.101337 -1.790558 1.790558
										CHANNELS 3 Xrotation Yrotation Zrotation
										JOINT RightHandThumb3
										{
											OFFSET -3.058640 -1.765907 1.765906
											CHANNELS 3 Xrotation Yrotation Zrotation
											End Site
											{
												OFFSET 0.415260 3.926476 -0.049563
											}
										}
									}
								}
								JOINT RightHandIndex1
								{
									OFFSET -11.334419 -0.901459 3.706815
									CHANNELS 3 Xrotation Yrotation Zrotation
									JOINT RightHandIndex2
									{
										OFFSET -3.283112 0.000000 0.000000
										CHANNELS 3 Xrotation Yrotation Zrotation
										JOINT RightHandIndex3
										{
											OFFSET -3.323853 0.000000 0.000000
											CHANNELS 3 Xrotation Yrotation Zrotation
											End Site
											{
												OFFSET 1.135597 3.097809 0.402452
											}
										}
									}
								}
								JOINT RightHandMiddle1
								{
									OFFSET -11.335861 0.000000 0.000000
									CHANNELS 3 Xrotation Yrotation Zrotation
									JOINT RightHandMiddle2
									{
										OFFSET -3.410492 0.000000 0.000000
										CHANNELS 3 Xrotation Yrotation Zrotation
										JOINT RightHandMiddle3
										{
											OFFSET -3.312172 0.000000 0.000000
											CHANNELS 3 Xrotation Yrotation Zrotation
											End Site
											{
												OFFSET 1.150200 3.080154 0.400270
											}
										}
									}
								}
								JOINT RightHandRing1
								{
									OFFSET -11.514786 -0.013176 -3.003090
									CHANNELS 3 Xrotation Yrotation Zrotation
									JOINT RightHandRing2
									{
										OFFSET -3.053307 0.000000 0.000000
										CHANNELS 3 Xrotation Yrotation Zrotation
										JOINT RightHandRing3
										{
											OFFSET -3.295807 0.000000 0.000000
											CHANNELS 3 Xrotation Yrotation Zrotation
											End Site
											{
												OFFSET 1.281006 3.013344 0.375733
											}
										}
									}
								}
								JOINT RightHandPinky1
								{
									OFFSET -10.518692 -0.960396 -5.730441
									CHANNELS 3 Xrotation Yrotation Zrotation
									JOINT RightHandPinky2
									{
										OFFSET -2.861649 0.000000 0.000000
										CHANNELS 3 Xrotation Yrotation Zrotation
										JOINT RightHandPinky3
										{
											OFFSET -2.863380 0.000000 0.000000
											CHANNELS 3 Xrotation Yrotation Zrotation
											End Site
											{
												OFFSET 0.843597 2.711159 0.369971
											}
										}
									}
								}
							}
							JOINT RSleeve
							{
								OFFSET -6.676277 -0.344902 -1.011730
								CHANNELS 3 Xrotation Yrotation Zrotation
								End Site
								{
									OFFSET 0.000000 14.885353 0.000000
								}
							}
						}
					}
				}
				JOINT Backpack
				{
					OFFSET 0.000000 -2.471497 36.677502
					CHANNELS 3 Xrotation Yrotation Zrotation
					End Site
					{
						OFFSET 0.000000 20.427315 0.000000
					}
				}
				JOINT Hood
				{
					OFFSET 0.000000 18.754097 -10.431000
					CHANNELS 3 Xrotation Yrotation Zrotation
					JOINT Hood1
					{
						OFFSET 0.000000 -5.011002 -7.685901
						CHANNELS 3 Xrotation Yrotation Zrotation
						End Site
						{
							OFFSET 0.000000 9.175140 0.000000
						}
					}
				}
				JOINT LHoodieString
				{
					OFFSET 5.250500 16.397697 3.089900
					CHANNELS 3 Xrotation Yrotation Zrotation
					JOINT LHoodieString1
					{
						OFFSET 0.257700 -6.364304 3.694600
						CHANNELS 3 Xrotation Yrotation Zrotation
						JOINT LHoodieString2
						{
							OFFSET 0.000000 -9.643799 2.679100
							CHANNELS 3 Xrotation Yrotation Zrotation
							End Site
							{
								OFFSET 0.000000 10.009018 0.000000
							}
						}
					}
				}
				JOINT RHoodieString
				{
					OFFSET -5.250500 16.397697 3.089900
					CHANNELS 3 Xrotation Yrotation Zrotation
					JOINT RHoodieString1
					{
						OFFSET -0.257700 -6.364304 3.694600
						CHANNELS 3 Xrotation Yrotation Zrotation
						JOINT RHoodieString2
						{
							OFFSET 0.000000 -9.643799 2.679100
							CHANNELS 3 Xrotation Yrotation Zrotation
							End Site
							{
								OFFSET 0.000000 10.009018 0.000000
							}
						}
					}
				}
			}
			JOINT LBackpack_Strap
			{
				OFFSET 15.223200 -7.719803 -6.610900
				CHANNELS 3 Xrotation Yrotation Zrotation
				End Site
				{
					OFFSET 0.000000 16.040596 0.000000
				}
			}
			JOINT RBackpack_Strap
			{
				OFFSET -15.223000 -7.719803 -6.610900
				CHANNELS 3 Xrotation Yrotation Zrotation
				End Site
				{
					OFFSET 0.000000 16.040596 0.000000
				}
			}
		}
	}
	JOINT BoyFacialAnim_Joint
	{
		OFFSET 1.000000 -82.208099 -1.550900
		CHANNELS 3 Xrotation Yrotation Zrotation
		End Site
		{
			OFFSET 0.000000 30.012791 0.000000
		}
	}
}
MOTION
Frames: 4
Frame Time: 0.033333
-0.239261 73.313171 0.424447 3.972632 -48.019365 -1.173568 0.000000 0.000000 -0.000000 -50.986819 0.352538 17.352220 63.691002 0.382501 3.752842 -3.064151 4.901708 -2.882057 0.000000 0.000002 0.000000 0.000000 0.000002 -0.000000 0.000001 -0.000002 0.000000 -37.800391 -21.677516 -1.193370 54.164944 -9.603281 0.982474 -22.006745 -14.585167 -5.120861 0.000000 -0.000000 -0.000000 0.000000 -0.000000 -0.000000 -0.000001 -0.000000 0.000000 23.129467 9.480434 -3.069313 4.183581 -0.682747 -8.546132 9.991360 -4.557154 -2.601689 -8.774692 8.688041 2.029985 -15.283486 21.226428 16.862634 0.000001 -0.000000 0.000000 0.000001 -0.000000 0.000000 0.000001 -0.000000 0.000000 -36.952150 -7.345296 4.547312 -62.052808 -14.281190 -57.215730 -0.000024 -60.396597 -0.000011 -117.245238 4.983863 35.486610 1.567994 0.456386 2.719342 19.473185 -1.474914 7.636921 -0.000002 0.000002 -0.000003 -1.882818 2.129410 -39.817008 2.947084 5.081756 -60.200522 0.000001 0.000001 -0.000003 0.405916 5.507040 -52.453151 3.387147 5.308618 -65.057463 0.000004 0.000000 0.000000 -0.074376 5.736789 -61.061440 4.422098 5.674468 -75.840392 -0.000000 0.000001 -0.000002 2.216818 7.072464 -64.435445 4.422633 5.674627 -75.845747 0.000003 0.000000 -0.000004 0.000000 -0.000001 0.000002 -43.779522 2.472679 4.187284 -38.162217 43.591968 92.502864 0.000125 103.940658 -0.000124 -38.242513 -24.065586 -27.638835 8.377125 -4.904140 11.022002 21.620192 -18.183890 -18.379223 -0.000004 0.000002 0.000002 -1.101411 1.407129 15.159516 1.422369 -3.352174 45.974075 -0.000000 0.000001 0.000007 3.413051 -7.186266 51.650235 6.296811 -4.359572 110.634660 0.000001 0.000001 -0.000000 -3.349044 -2.600427 57.010558 5.440857 -4.590890 99.698161 -0.000000 0.000001 0.000002 -3.996452 -3.303925 64.593857 4.058850 -4.618684 82.610516 -0.000000 -0.000000 -0.000001 -0.000000 0.000001 -0.000002 -0.000001 -0.000004 -0.000000 -0.000001 -0.000004 -0.000000 -0.000001 -0.000004 -0.000000 -0.000001 -0.000004 -0.000000 -0.000001 -0.000004 -0.000000 -0.000002 -0.000001 -0.000001 -0.000001 -0.000004 -0.000000 -0.000001 -0.000004 -0.000000 -0.000002 -0.000001 -0.000001 0.000001 -0.000001 -0.000000 0.000001 -0.000001 -0.000000 0.000000 0.000000 -0.000000 
1.249980 73.900833 0.507484 3.724217 -47.699517 -1.448979 0.000000 0.000001 -0.000000 -46.356689 -1.695770 17.572200 64.569863 0.468168 6.709265 -4.993705 4.458317 -2.560725 -0.000000 0.000000 0.000000 -0.000000 0.000000 0.000001 -0.000001 -0.000000 -0.000003 -37.806671 -20.972654 -1.375638 51.971637 -9.920995 0.467413 -19.561740 -15.097365 -4.401503 0.000000 -0.000000 0.000000 0.000000 -0.000000 0.000000 -0.000001 -0.000000 -0.000001 22.667103 9.209700 -2.851837 4.090104 -0.774547 -8.546185 9.899394 -4.653903 -2.592176 -8.660095 8.743405 1.974950 -14.774240 21.390974 16.776939 0.000001 -0.000001 0.000002 0.000001 -0.000001 0.000002 0.000001 -0.000001 0.000002 -36.884702 -7.462911 4.235798 -61.503757 -14.850814 -56.604530 0.000023 -60.098063 0.000025 -117.499048 5.042355 35.576724 1.567995 0.456385 2.719343 19.491412 -1.462911 7.608247 -0.000000 0.000005 -0.000001 -1.882590 2.123862 -39.775866 2.947107 5.081738 -60.200502 -0.000002 0.000001 -0.000002 0.400992 5.501292 -52.416388 3.390043 5.309952 -65.088602 0.000003 -0.000001 0.000000 -0.071691 5.739864 -61.083625 4.424558 5.675109 -75.865527 0.000003 0.000002 -0.000002 2.183610 7.056353 -64.421866 4.421000 5.674233 -75.829443 0.000001 0.000003 -0.000003 0.000001 0.000002 0.000001 -43.802328 2.655728 4.144382 -37.810821 43.579021 92.567976 0.000116 103.704231 -0.000131 -38.618665 -23.734059 -27.910284 8.361746 -4.860398 11.029658 21.606311 -18.209875 -18.372794 -0.000002 -0.000000 0.000001 -1.101733 1.422421 15.119230 1.422358 -3.352181 45.974085 -0.000001 0.000001 0.000000 3.412772 -7.187692 51.613144 6.299170 -4.358688 110.665785 0.000001 0.000001 0.000002 -3.350261 -2.602705 57.032687 5.442880 -4.590553 99.723310 -0.000000 0.000000 0.000002 -3.964730 -3.317107 64.579801 4.057445 -4.618523 82.593209 -0.000000 -0.000000 -0.000002 -0.000001 0.000000 0.000002 0.000001 0.000003 -0.000001 0.000001 0.000003 -0.000001 0.000001 0.000003 -0.000001 0.000001 0.000003 -0.000001 0.000001 0.000003 -0.000001 0.000003 -0.000001 0.000001 0.000001 0.000003 -0.000001 0.000001 0.000003 -0.000001 0.000003 -0.000001 0.000001 -0.000000 0.000000 0.000000 -0.000000 0.000000 0.000000 0.000000 0.000001 -0.000000 
2.661221 74.501495 0.662302 3.231838 -47.590873 -1.973348 0.000000 0.000001 -0.000000 -40.541787 -3.765291 19.517911 63.899821 -0.030939 7.043964 -7.410882 3.935171 -1.657774 0.000001 -0.000002 -0.000000 0.000001 -0.000002 -0.000002 -0.000001 0.000003 -0.000003 -37.325867 -19.941226 -1.112859 49.476849 -9.930374 -0.207297 -16.988897 -16.086330 -3.654005 -0.000000 0.000000 0.000000 -0.000000 0.000000 0.000000 0.000001 -0.000001 0.000000 22.298158 9.162285 -2.694529 3.990062 -0.795173 -8.545748 9.800153 -4.677710 -2.586938 -8.522121 8.805658 1.941496 -14.141341 21.811769 16.862827 0.000003 0.000000 -0.000000 0.000003 0.000000 -0.000000 0.000003 0.000000 -0.000000 -36.880850 -7.372535 4.191063 -60.966214 -15.252437 -56.515188 0.000040 -59.753220 0.000032 -117.656565 5.015340 35.448484 1.567995 0.456389 2.719342 19.482327 -1.534092 7.574483 -0.000002 0.000002 -0.000001 -1.876653 2.139675 -39.836423 2.946755 5.081554 -60.196663 0.000001 0.000000 -0.000002 0.400923 5.505544 -52.495721 3.390637 5.310231 -65.095118 0.000003 0.000000 -0.000001 -0.096009 5.724218 -61.052547 4.430696 5.676643 -75.927518 0.000001 0.000001 -0.000000 2.170152 7.049561 -64.406348 4.419350 5.673807 -75.812709 0.000001 0.000003 0.000002 0.000000 0.000005 -0.000001 -43.793988 2.875394 4.275877 -37.134048 43.371848 92.433708 -0.000013 103.631551 -0.000006 -38.646450 -23.670355 -27.864995 8.359415 -4.876977 11.027042 21.547519 -18.266600 -18.353459 -0.000003 -0.000001 -0.000000 -1.109004 1.428264 15.181880 1.422188 -3.352033 45.971104 0.000000 0.000000 0.000002 3.424000 -7.192928 51.693061 6.299654 -4.358505 110.672267 -0.000001 0.000001 -0.000002 -3.328937 -2.612227 57.000377 5.447812 -4.589701 99.785198 0.000001 -0.000001 0.000005 -3.952851 -3.320575 64.564241 4.056084 -4.618334 82.576202 -0.000000 -0.000000 -0.000001 -0.000001 -0.000003 -0.000002 -0.000002 0.000001 0.000001 -0.000002 0.000001 0.000001 -0.000002 0.000001 0.000001 -0.000002 0.000001 0.000001 -0.000002 0.000001 0.000001 -0.000002 -0.000002 0.000001 -0.000002 0.000001 0.000001 -0.000002 0.000001 0.000001 -0.000002 -0.000002 0.000001 0.000002 0.000000 -0.000002 0.000002 0.000000 -0.000002 0.000000 0.000001 -0.000000 
4.152553 74.909386 0.944885 2.676421 -47.575775 -2.466888 -0.000000 -0.000001 -0.000000 -34.560341 -4.305333 21.120956 61.696170 -2.548133 7.947757 -8.905448 3.297194 -1.121084 -0.000001 0.000001 -0.000001 -0.000001 0.000001 -0.000000 -0.000001 0.000002 0.000001 -37.138068 -18.983174 -1.260902 47.569177 -9.896339 -0.837127 -14.590881 -16.845031 -2.742303 -0.000000 -0.000000 -0.000000 -0.000000 -0.000000 -0.000000 -0.000001 -0.000000 0.000000 21.857913 9.231274 -2.545489 3.929941 -0.785125 -8.597329 9.737049 -4.678360 -2.638278 -8.398156 8.789262 1.978925 -13.633604 21.847716 16.840352 -0.000001 0.000002 -0.000000 -0.000001 0.000002 -0.000000 -0.000001 0.000002 -0.000000 -36.914314 -7.817479 4.285945 -60.471073 -14.849887 -56.362933 -0.000043 -59.695471 -0.000050 -117.434243 5.157315 35.591289 1.567995 0.456385 2.719342 19.481979 -1.549776 7.544303 -0.000001 -0.000001 -0.000000 -1.872269 2.148043 -39.857801 2.938287 5.076691 -60.100993 -0.000000 0.000001 -0.000002 0.410637 5.514185 -52.518318 3.392237 5.310982 -65.112508 0.000003 0.000002 0.000000 -0.102494 5.718073 -61.017181 4.434053 5.677484 -75.961471 0.000003 0.000000 0.000003 2.136548 7.032981 -64.382900 4.417758 5.673399 -75.796378 -0.000000 -0.000003 -0.000002 0.000003 0.000001 0.000002 -43.785737 2.743369 4.270356 -36.857678 43.281351 92.635547 0.000003 103.431522 -0.000008 -38.763530 -23.605274 -27.801095 8.346268 -4.856209 11.030911 21.516805 -18.302670 -18.340663 -0.000004 -0.000000 0.000000 -1.112799 1.434670 15.204648 1.416659 -3.346673 45.876530 0.000001 -0.000000 0.000002 3.417538 -7.186844 51.715904 6.300983 -4.358015 110.689595 0.000001 0.000002 -0.000004 -3.324931 -2.609982 56.965007 5.450535 -4.589243 99.819158 -0.000001 0.000000 0.000002 -3.921715 -3.332088 64.540452 4.054703 -4.618135 82.558935 0.000001 0.000000 -0.000003 -0.000001 -0.000004 -0.000002 0.000002 -0.000001 0.000001 0.000002 -0.000001 0.000001 0.000002 -0.000001 0.000001 0.000002 -0.000001 0.000001 0.000002 -0.000001 0.000001 -0.000001 0.000003 -0.000002 0.000002 -0.000001 0.000001 0.000002 -0.000001 0.000001 -0.000001 0.000003 -0.000002 0.000001 -0.000002 0.000001 0.000001 -0.000002 0.000001 -0.000000 -0.000001 -0.000000 
